<svg width="60" height="60" viewBox="0 0 60 60" fill="none" xmlns="http://www.w3.org/2000/svg">
<circle cx="30" cy="30" r="30" fill="#7FEAD6"/>
<path d="M30.327 24.04V37H28.473V28.117C28.473 27.973 28.476 27.817 28.482 27.649C28.494 27.475 28.509 27.301 28.527 27.127L24.36 34.822C24.198 35.14 23.949 35.299 23.613 35.299H23.316C22.974 35.299 22.725 35.14 22.569 34.822L18.339 27.109C18.357 27.283 18.369 27.457 18.375 27.631C18.387 27.805 18.393 27.967 18.393 28.117V37H16.539V24.04H18.114C18.3 24.04 18.444 24.058 18.546 24.094C18.648 24.124 18.741 24.223 18.825 24.391L22.983 31.924C23.073 32.098 23.157 32.278 23.235 32.464C23.319 32.644 23.394 32.83 23.46 33.022C23.532 32.83 23.607 32.641 23.685 32.455C23.769 32.263 23.856 32.08 23.946 31.906L28.041 24.391C28.125 24.223 28.218 24.124 28.32 24.094C28.422 24.058 28.566 24.04 28.752 24.04H30.327ZM42.3964 34.111C42.5104 34.111 42.6094 34.156 42.6934 34.246L43.5304 35.155C43.0024 35.791 42.3544 36.283 41.5864 36.631C40.8184 36.973 39.9004 37.144 38.8324 37.144C37.8844 37.144 37.0264 36.982 36.2584 36.658C35.4964 36.328 34.8454 35.872 34.3054 35.29C33.7654 34.702 33.3484 34.003 33.0544 33.193C32.7664 32.383 32.6224 31.492 32.6224 30.52C32.6224 29.548 32.7754 28.657 33.0814 27.847C33.3934 27.031 33.8284 26.332 34.3864 25.75C34.9504 25.162 35.6224 24.706 36.4024 24.382C37.1884 24.058 38.0524 23.896 38.9944 23.896C39.9304 23.896 40.7554 24.049 41.4694 24.355C42.1894 24.655 42.8134 25.057 43.3414 25.561L42.6484 26.542C42.6004 26.608 42.5434 26.665 42.4774 26.713C42.4114 26.761 42.3214 26.785 42.2074 26.785C42.0874 26.785 41.9494 26.731 41.7934 26.623C41.6434 26.509 41.4484 26.386 41.2084 26.254C40.9744 26.116 40.6774 25.993 40.3174 25.885C39.9634 25.771 39.5194 25.714 38.9854 25.714C38.3674 25.714 37.8004 25.822 37.2844 26.038C36.7684 26.254 36.3244 26.569 35.9524 26.983C35.5804 27.397 35.2894 27.901 35.0794 28.495C34.8754 29.089 34.7734 29.764 34.7734 30.52C34.7734 31.282 34.8814 31.963 35.0974 32.563C35.3134 33.157 35.6104 33.661 35.9884 34.075C36.3664 34.483 36.8104 34.795 37.3204 35.011C37.8304 35.227 38.3794 35.335 38.9674 35.335C39.3274 35.335 39.6484 35.317 39.9304 35.281C40.2184 35.239 40.4824 35.176 40.7224 35.092C40.9624 35.002 41.1874 34.891 41.3974 34.759C41.6134 34.627 41.8264 34.465 42.0364 34.273C42.1564 34.165 42.2764 34.111 42.3964 34.111Z" fill="black"/>
</svg>
